<!-- Generated by IcoMoon.io -->
<svg fill="#ffffffff" version="1.1" xmlns="http://www.w3.org/2000/svg" width="20" height="20" viewBox="0 0 20 20">
<title>behance</title>
<path d="M8.51 9.46c0 0 1.462-0.114 1.462-1.9 0-1.789-1.196-2.659-2.712-2.659h-4.987v9.988h4.987c0 0 3.045 0.1 3.045-2.949-0.001-0.001 0.132-2.48-1.795-2.48zM4.471 6.675h2.789c0 0 0.678 0 0.678 1.038 0 1.040-0.399 1.191-0.852 1.191h-2.616v-2.229zM7.119 13.113h-2.648v-2.67h2.789c0 0 1.011-0.014 1.011 1.372 0 1.168-0.755 1.29-1.152 1.298zM14.365 7.441c-3.687 0-3.683 3.838-3.683 3.838s-0.252 3.818 3.683 3.818c0 0 3.279 0.196 3.279-2.656h-1.686c0 0 0.056 1.075-1.536 1.075 0 0-1.688 0.117-1.688-1.739h4.963c0.001-0.001 0.548-4.336-3.332-4.336zM15.865 10.444h-3.148c0 0 0.206-1.539 1.686-1.539s1.462 1.539 1.462 1.539zM16.257 5.487h-3.954v1.232h3.954v-1.232z"></path>
</svg>
