<!-- Generated by IcoMoon.io -->
<svg version="1.1" xmlns="http://www.w3.org/2000/svg" width="20" height="20" viewBox="0 0 20 20">
<title>github</title>
<path d="M10 1.122c-5.027 0-9.103 4.075-9.103 9.103 0 4.022 2.608 7.434 6.225 8.638 0.455 0.084 0.622-0.198 0.622-0.438 0-0.217-0.009-0.934-0.012-1.695-2.533 0.551-3.067-1.074-3.067-1.074-0.414-1.052-1.011-1.332-1.011-1.332-0.826-0.565 0.062-0.553 0.062-0.553 0.914 0.064 1.395 0.938 1.395 0.938 0.812 1.392 2.129 0.989 2.649 0.757 0.082-0.588 0.317-0.99 0.578-1.217-2.022-0.23-4.147-1.011-4.147-4.499 0-0.994 0.356-1.806 0.938-2.443-0.094-0.229-0.406-1.155 0.088-2.409 0 0 0.765-0.245 2.504 0.933 0.726-0.202 1.505-0.303 2.278-0.306 0.773 0.003 1.553 0.105 2.28 0.306 1.738-1.178 2.501-0.933 2.501-0.933 0.496 1.254 0.184 2.18 0.090 2.409 0.584 0.637 0.937 1.45 0.937 2.443 0 3.496-2.129 4.266-4.157 4.491 0.326 0.283 0.617 0.836 0.617 1.686 0 1.218-0.011 2.198-0.011 2.498 0 0.242 0.164 0.526 0.625 0.437 3.615-1.205 6.22-4.616 6.22-8.636 0-5.028-4.076-9.103-9.103-9.103z"></path>
</svg>
