<!-- Generated by IcoMoon.io -->
<svg version="1.1" xmlns="http://www.w3.org/2000/svg" width="20" height="20" viewBox="0 0 20 20">
<title>google-plus3</title>
<path d="M10 0.25c-5.385 0-9.75 4.365-9.75 9.75s4.365 9.75 9.75 9.75 9.75-4.365 9.75-9.75-4.365-9.75-9.75-9.75zM7.563 14.875c-2.696 0-4.875-2.179-4.875-4.875s2.179-4.875 4.875-4.875c1.318 0 2.418 0.48 3.268 1.276l-1.325 1.272c-0.362-0.347-0.994-0.75-1.942-0.75-1.664 0-3.024 1.379-3.024 3.077s1.36 3.077 3.024 3.077c1.931 0 2.655-1.386 2.765-2.102h-2.765v-1.672h4.605c0.042 0.244 0.076 0.487 0.076 0.807 0 2.788-1.866 4.765-4.681 4.765zM16.094 10v1.219h-1.219v-1.219h-1.219v-1.219h1.219v-1.219h1.219v1.219h1.219v1.219h-1.219z"></path>
</svg>
